<?xml version="1.0" standalone="no"?>
<!DOCTYPE svg PUBLIC "-//W3C//DTD SVG 20010904//EN"
 "http://www.w3.org/TR/2001/REC-SVG-20010904/DTD/svg10.dtd">
<svg version="1.0" xmlns="http://www.w3.org/2000/svg"
 width="16.000000pt" height="16.000000pt" viewBox="0 0 16.000000 16.000000"
 preserveAspectRatio="xMidYMid meet">
<metadata>
Created by potrace 1.11, written by Peter Selinger 2001-2013
</metadata>
<g transform="translate(0.000000,16.000000) scale(0.002286,-0.002286)"
fill="#000000" stroke="none">
<path d="M6734 6770 c-11 -4 -74 -11 -140 -15 -131 -7 -132 -7 -289 -30 -192
-28 -275 -45 -450 -91 -253 -67 -442 -132 -670 -229 -148 -63 -521 -251 -545
-275 -3 -3 -21 -14 -40 -24 -176 -97 -551 -374 -760 -560 -87 -78 -417 -412
-505 -511 -44 -50 -83 -92 -86 -95 -9 -8 -231 -271 -261 -310 -77 -99 -185
-239 -200 -261 -10 -13 -36 -48 -58 -78 -21 -29 -41 -58 -42 -63 -2 -6 -31 6
-63 26 -92 55 -248 112 -375 136 -100 19 -136 21 -275 17 -104 -4 -195 -13
-260 -27 -427 -91 -892 -345 -1357 -743 -71 -60 -128 -112 -128 -116 0 -4 33
3 72 16 197 65 542 87 721 47 12 -3 36 -8 52 -11 65 -11 224 -67 306 -108 224
-110 439 -306 584 -530 21 -33 43 -66 49 -74 9 -12 8 -13 -3 -7 -15 10 -202
-169 -228 -218 -32 -62 -21 -126 34 -187 l36 -39 -72 -73 c-73 -73 -87 -98
-79 -142 5 -23 2 -25 -38 -26 -24 -1 -47 -2 -51 -3 -87 -23 -317 -107 -438
-160 -84 -38 -167 -99 -234 -173 -61 -67 -138 -203 -126 -222 8 -14 148 -57
213 -66 l52 -7 -19 -31 c-61 -100 -114 -251 -127 -365 -9 -81 -11 -191 -3
-204 13 -20 232 -12 294 12 14 5 25 8 25 5 0 -10 149 48 216 84 41 22 74 37
74 33 2 -40 16 -101 38 -167 25 -74 29 -80 52 -77 86 12 251 137 316 240 65
100 211 488 221 585 6 57 7 59 32 54 40 -8 76 12 146 82 l64 64 47 -42 c26
-22 54 -41 63 -42 9 0 25 -2 35 -4 41 -8 93 28 193 133 56 59 102 110 103 115
1 21 243 -160 335 -251 208 -205 327 -419 389 -692 33 -146 40 -349 19 -510
-14 -105 -60 -298 -76 -317 -18 -24 18 -14 38 10 10 12 46 54 79 93 103 120
109 127 171 209 318 420 510 817 586 1210 21 109 19 410 -4 510 -31 136 -86
277 -143 367 -14 22 -24 41 -22 42 334 226 744 571 1094 921 277 277 443 476
649 780 142 210 314 520 400 720 9 22 21 48 26 57 17 33 107 264 143 368 66
189 155 541 182 720 3 25 8 52 9 60 1 8 6 40 10 70 3 30 8 66 10 80 2 14 7 75
10 135 6 108 7 118 20 163 7 24 -4 27 -41 12z"/>
</g>
</svg>
